<svg xmlns="http://www.w3.org/2000/svg" fill="none" viewBox="0 0 25 17"><g clip-path="url(#a)"><path fill="#039" d="M25 0H0v17h25V0Z"/><path fill="#FC0" d="m12.5 1.89-.29.9.44.14-.15-1.04Z"/><path fill="#FC0" d="m12.5 1.89.29.9-.44.14.15-1.04Z"/><path fill="#FC0" d="M13.38 2.54h-.92v.47l.92-.47Z"/><path fill="#FC0" d="m13.38 2.54-.75.56-.27-.38 1.02-.18Z"/><path fill="#FC0" d="m13.04 3.6-.28-.9-.44.15.72.75Z"/><path fill="#FC0" d="m13.04 3.6-.74-.56.27-.38.47.94Z"/><path fill="#FC0" d="M11.62 2.54h.92v.47l-.92-.47Z"/><path fill="#FC0" d="m11.62 2.54.75.56.27-.38-1.02-.18Z"/><path fill="#FC0" d="m11.96 3.6.28-.9.44.15-.72.75Z"/><path fill="#FC0" d="m11.96 3.6.74-.56-.27-.38-.47.94Zm.54 9.62-.29.9.44.15-.15-1.05Z"/><path fill="#FC0" d="m12.5 13.22.29.9-.44.15.15-1.05Z"/><path fill="#FC0" d="M13.38 13.87h-.92v.48l.92-.48Z"/><path fill="#FC0" d="m13.38 13.87-.75.56-.27-.38 1.02-.18Z"/><path fill="#FC0" d="m13.04 14.93-.28-.9-.44.15.72.75Z"/><path fill="#FC0" d="m13.04 14.93-.74-.55.27-.39.47.94Z"/><path fill="#FC0" d="M11.62 13.87h.92v.48l-.92-.48Z"/><path fill="#FC0" d="m11.62 13.87.75.56.27-.38-1.02-.18Z"/><path fill="#FC0" d="m11.96 14.93.28-.9.44.15-.72.75Z"/><path fill="#FC0" d="m11.96 14.93.74-.55-.27-.39-.47.94ZM6.94 7.56l-.28.9.44.14-.16-1.04Z"/><path fill="#FC0" d="m6.94 7.56.3.9-.45.14.15-1.04Z"/><path fill="#FC0" d="m7.83 8.2-.93.01v.47l.93-.47Z"/><path fill="#FC0" d="m7.83 8.2-.76.56-.27-.38 1.03-.17Z"/><path fill="#FC0" d="m7.49 9.26-.29-.9-.44.15.73.75Z"/><path fill="#FC0" d="m7.49 9.26-.75-.55.27-.38.48.93Z"/><path fill="#FC0" d="m6.06 8.2.93.01v.47l-.93-.47Z"/><path fill="#FC0" d="m6.06 8.2.75.56.28-.38-1.03-.17Z"/><path fill="#FC0" d="m6.4 9.26.28-.9.45.15-.73.75Z"/><path fill="#FC0" d="m6.4 9.26.75-.55-.27-.38-.48.93Zm2.78-4.9.75-.56-.28-.38-.47.94Z"/><path fill="#FC0" d="m9.18 4.36.28-.9.44.15-.72.75Z"/><path fill="#FC0" d="m8.84 3.3.75.56.27-.39-1.02-.17Z"/><path fill="#FC0" d="M8.84 3.3h.93v.47l-.93-.47Z"/><path fill="#FC0" d="m9.72 2.65-.28.9.44.14-.16-1.04Z"/><path fill="#FC0" d="m9.72 2.65.29.9-.44.14.15-1.04Z"/><path fill="#FC0" d="m10.27 4.36-.75-.56.27-.38.48.94Z"/><path fill="#FC0" d="m10.27 4.36-.3-.9-.43.14.73.76Z"/><path fill="#FC0" d="m10.6 3.3-.75.56-.27-.39 1.02-.17Z"/><path fill="#FC0" d="M10.6 3.3h-.92v.47l.92-.47ZM8.23 6.43l-.28-.9-.44.15.72.75Z"/><path fill="#FC0" d="m8.23 6.43-.75-.55.28-.39.47.94Z"/><path fill="#FC0" d="m7.14 6.43.75-.56-.27-.38-.48.94Z"/><path fill="#FC0" d="m7.14 6.43.3-.9.43.15-.73.75Z"/><path fill="#FC0" d="m6.8 5.38.76.55.27-.38-1.02-.17Z"/><path fill="#FC0" d="M6.8 5.38h.93v.47l-.92-.47Z"/><path fill="#FC0" d="m8.57 5.37-.75.56-.27-.38 1.02-.18Z"/><path fill="#FC0" d="M8.57 5.37h-.93v.48l.93-.48Z"/><path fill="#FC0" d="m7.7 4.72.27.9-.44.15.16-1.05Z"/><path fill="#FC0" d="m7.7 4.72-.3.9.44.15-.15-1.05Zm.87 6.32h-.92v.47l.92-.47Z"/><path fill="#FC0" d="m8.57 11.04-.75.56-.27-.38 1.02-.18Z"/><path fill="#FC0" d="m8.23 12.1-.28-.9-.44.15.72.74Z"/><path fill="#FC0" d="m8.23 12.1-.75-.55.28-.39.47.94Z"/><path fill="#FC0" d="m7.14 12.1.75-.56-.27-.38-.48.94Z"/><path fill="#FC0" d="m7.14 12.1.3-.9.43.14-.73.76Z"/><path fill="#FC0" d="m7.7 10.39.27.9-.44.14.16-1.04Z"/><path fill="#FC0" d="m7.7 10.39-.3.9.44.14-.15-1.04Z"/><path fill="#FC0" d="M6.8 11.04h.93v.47l-.92-.47Z"/><path fill="#FC0" d="m6.8 11.04.76.56.27-.39-1.02-.17Zm3.8 2.08h-.92v.47l.92-.47Z"/><path fill="#FC0" d="m10.6 13.11-.75.56-.27-.38 1.02-.18Z"/><path fill="#FC0" d="m10.27 14.17-.29-.9-.44.15.73.75Z"/><path fill="#FC0" d="m10.26 14.17-.74-.55.27-.39.47.94Z"/><path fill="#FC0" d="m9.18 14.17.75-.56-.27-.38-.48.94Z"/><path fill="#FC0" d="m9.18 14.17.29-.9.43.15-.72.75Z"/><path fill="#FC0" d="m9.73 12.46.28.9-.45.15.17-1.05Z"/><path fill="#FC0" d="m9.73 12.46-.3.9.44.15-.14-1.05Z"/><path fill="#FC0" d="M8.84 13.12h.93v.47l-.93-.47Z"/><path fill="#FC0" d="m8.84 13.12.75.55.27-.38-1.02-.17Zm9.22-5.56.28.9-.44.14.16-1.04Z"/><path fill="#FC0" d="m18.06 7.56-.3.9.45.14-.15-1.04Z"/><path fill="#FC0" d="m17.17 8.2.93.01v.47l-.93-.47Z"/><path fill="#FC0" d="m17.17 8.2.76.56.27-.38-1.03-.17Z"/><path fill="#FC0" d="m17.51 9.26.29-.9.44.15-.73.75Z"/><path fill="#FC0" d="m17.51 9.26.75-.55-.27-.38-.48.93Z"/><path fill="#FC0" d="m18.94 8.2-.93.01v.47l.93-.47Z"/><path fill="#FC0" d="m18.94 8.2-.75.56-.28-.38 1.03-.17Z"/><path fill="#FC0" d="m18.6 9.26-.28-.9-.45.15.73.75Z"/><path fill="#FC0" d="m18.6 9.26-.75-.55.27-.38.48.93Zm-2.78-4.9-.75-.56.28-.38.47.94Z"/><path fill="#FC0" d="m15.82 4.36-.28-.9-.44.15.72.75Z"/><path fill="#FC0" d="m16.16 3.3-.75.56-.27-.39 1.02-.17Z"/><path fill="#FC0" d="M16.16 3.3h-.93v.47l.93-.47Z"/><path fill="#FC0" d="m15.28 2.65.28.9-.44.14.16-1.04Z"/><path fill="#FC0" d="m15.28 2.65-.29.9.44.14-.15-1.04Z"/><path fill="#FC0" d="m14.73 4.36.75-.56-.27-.38-.48.94Z"/><path fill="#FC0" d="m14.73 4.36.3-.9.43.14-.73.76Z"/><path fill="#FC0" d="m14.4 3.3.75.56.27-.39-1.02-.17Z"/><path fill="#FC0" d="M14.4 3.3h.92v.47l-.92-.47Zm2.37 3.13.28-.9.44.15-.72.75Z"/><path fill="#FC0" d="m16.77 6.43.75-.55-.28-.39-.47.94Z"/><path fill="#FC0" d="m17.86 6.43-.75-.56.27-.38.48.94Z"/><path fill="#FC0" d="m17.86 6.43-.3-.9-.43.15.73.75Z"/><path fill="#FC0" d="m18.2 5.38-.76.55-.27-.38 1.02-.17Z"/><path fill="#FC0" d="M18.2 5.38h-.93v.47l.92-.47Z"/><path fill="#FC0" d="m16.43 5.37.75.56.27-.38-1.02-.18Z"/><path fill="#FC0" d="M16.43 5.37h.93v.48l-.93-.48Z"/><path fill="#FC0" d="m17.3 4.72-.27.9.44.15-.16-1.05Z"/><path fill="#FC0" d="m17.3 4.72.3.9-.44.15.15-1.05Zm-.87 6.32h.92v.47l-.92-.47Z"/><path fill="#FC0" d="m16.43 11.04.75.56.27-.38-1.02-.18Z"/><path fill="#FC0" d="m16.77 12.1.28-.9.44.15-.72.74Z"/><path fill="#FC0" d="m16.77 12.1.75-.55-.28-.39-.47.94Z"/><path fill="#FC0" d="m17.86 12.1-.75-.56.27-.38.48.94Z"/><path fill="#FC0" d="m17.86 12.1-.3-.9-.43.14.73.76Z"/><path fill="#FC0" d="m17.3 10.39-.27.9.44.14-.16-1.04Z"/><path fill="#FC0" d="m17.3 10.39.3.9-.44.14.15-1.04Z"/><path fill="#FC0" d="M18.2 11.04h-.93v.47l.92-.47Z"/><path fill="#FC0" d="m18.2 11.04-.76.56-.27-.39 1.02-.17Zm-3.8 2.08h.92v.47l-.92-.47Z"/><path fill="#FC0" d="m14.4 13.11.75.56.27-.38-1.02-.18Z"/><path fill="#FC0" d="m14.73 14.17.29-.9.44.15-.73.75Z"/><path fill="#FC0" d="m14.74 14.17.74-.55-.27-.39-.47.94Z"/><path fill="#FC0" d="m15.82 14.17-.75-.56.27-.38.48.94Z"/><path fill="#FC0" d="m15.82 14.17-.29-.9-.43.15.72.75Z"/><path fill="#FC0" d="m15.27 12.46-.28.9.45.15-.17-1.05Z"/><path fill="#FC0" d="m15.27 12.46.3.9-.44.15.14-1.05Z"/><path fill="#FC0" d="M16.16 13.12h-.93v.47l.93-.47Z"/><path fill="#FC0" d="m16.16 13.12-.75.55-.27-.38 1.02-.17Z"/></g><defs><clipPath id="a"><rect width="25" height="17" fill="#fff" rx="3"/></clipPath></defs></svg>