<svg width="25" height="25" viewBox="0 0 25 25" fill="none" xmlns="http://www.w3.org/2000/svg">
<path fill-rule="evenodd" clip-rule="evenodd" d="M18.2254 22.8421C18.5875 22.6973 18.9053 22.5516 19.1787 22.4142C19.7217 23.3381 20.7259 23.9583 21.875 23.9583C23.6009 23.9583 25 22.5592 25 20.8333V14.5833C25 12.8574 23.6009 11.4583 21.875 11.4583C20.4147 11.4583 19.1883 12.46 18.8455 13.8137C18.5478 13.9181 18.2475 14.0155 17.943 14.1025C17.0618 14.3543 16.0003 14.5832 15.1042 14.5832C13.7765 14.5832 11.3979 14.0993 10.0212 13.7879C8.97741 13.5519 7.90529 14.1358 7.56092 15.169L7.14909 16.4045C5.9945 15.974 4.59661 15.2752 3.62103 14.7577C2.52978 14.1788 1.1427 14.6509 0.671585 15.8287L0.34303 16.6501C0.0219702 17.4527 0.22462 18.4015 0.92793 18.9809C1.73236 19.6438 3.32438 20.8727 5.27535 21.9406C7.20743 22.9981 9.5996 23.9582 11.9792 23.9582C14.7257 23.9582 16.8098 23.4083 18.2254 22.8421ZM20.8333 20.8333C20.8333 21.4086 21.2997 21.875 21.875 21.875C22.4503 21.875 22.9167 21.4086 22.9167 20.8333V14.5833C22.9167 14.008 22.4503 13.5417 21.875 13.5417C21.2997 13.5417 20.8333 14.008 20.8333 14.5833V20.8333ZM15.1042 16.6666C13.5016 16.6666 10.889 16.1201 9.56165 15.82C9.56165 15.82 9.21336 16.7998 9.1624 16.9526L13.1734 17.9975C13.6546 18.1228 13.9292 18.6291 13.772 19.1007C13.6391 19.4994 13.2387 19.7433 12.8244 19.6734C11.5524 19.4588 8.9087 18.9895 7.56092 18.5797C5.74577 18.0277 3.86545 17.2457 2.64473 16.5981C2.64473 16.5981 2.32235 17.3113 2.28652 17.4009C3.04555 18.0241 4.50825 19.1457 6.27562 20.1131C8.08842 21.1053 10.114 21.8749 11.9792 21.8749C15.649 21.8749 17.8925 20.787 18.75 20.276V16.0371C17.5709 16.3895 16.3401 16.6666 15.1042 16.6666Z" fill="#2B2E4A" fill-opacity="0.75"/>
<path d="M12.5 1.04166C11.9247 1.04166 11.4583 1.50804 11.4583 2.08333V7.90171L10.1116 6.55498C9.70479 6.14833 9.04523 6.14833 8.63846 6.55498C8.23162 6.96188 8.23162 7.62131 8.63846 8.02822L11.7625 11.1524C12.1691 11.5589 12.828 11.5592 13.2349 11.1531L16.3594 8.03508C16.7661 7.62843 16.7661 6.96875 16.3594 6.5621C15.9526 6.1552 15.293 6.1552 14.8863 6.5621L13.5417 7.9066V2.08333C13.5417 1.50804 13.0753 1.04166 12.5 1.04166Z" fill="#2B2E4A" fill-opacity="0.75"/>
</svg>
