<svg width="463" height="243" viewBox="0 0 463 243" fill="none" xmlns="http://www.w3.org/2000/svg">
    <g clip-path="url(#clip0_54_320)">
        <path d="M0.650024 0H462.35V243H0.650024V0Z" fill="#B22234"/>
        <path d="M0.650024 28.0385H462.35ZM462.35 65.4231H0.650024ZM0.650024 102.808H462.35ZM462.35 140.192H0.650024ZM0.650024 177.577H462.35ZM462.35 214.962H0.650024Z" fill="black"/>
        <path d="M0.650024 28.0385H462.35M462.35 65.4231H0.650024M0.650024 102.808H462.35M462.35 140.192H0.650024M0.650024 177.577H462.35M462.35 214.962H0.650024" stroke="white" stroke-width="18.6923"/>
        <path d="M0.650024 0H185.33V130.846H0.650024V0Z" fill="#3C3B6E"/>
        <path d="M16.04 5.60769L20.4638 19.1285L8.93689 10.7792H23.143L11.6161 19.1285L16.04 5.60769Z" fill="white"/>
        <path d="M16.04 31.7769L20.4638 45.2977L8.93689 36.9485H23.143L11.6161 45.2977L16.04 31.7769Z" fill="white"/>
        <path d="M16.04 57.9462L20.4638 71.4669L8.93689 63.1177H23.143L11.6161 71.4669L16.04 57.9462Z" fill="white"/>
        <path d="M16.04 84.1154L20.4638 97.6362L8.93689 89.2869H23.143L11.6161 97.6362L16.04 84.1154Z" fill="white"/>
        <path d="M16.04 110.285L20.4638 123.805L8.93689 115.456H23.143L11.6161 123.805L16.04 110.285Z" fill="white"/>
        <path d="M31.43 18.6923L35.8538 32.2131L24.3269 23.8638H38.5331L27.0061 32.2131L31.43 18.6923Z" fill="white"/>
        <path d="M31.43 44.8615L35.8538 58.3823L24.3269 50.0331H38.5331L27.0061 58.3823L31.43 44.8615Z" fill="white"/>
        <path d="M31.43 71.0308L35.8538 84.5515L24.3269 76.2023H38.5331L27.0061 84.5515L31.43 71.0308Z" fill="white"/>
        <path d="M31.43 97.2L35.8538 110.721L24.3269 102.372H38.5331L27.0061 110.721L31.43 97.2Z" fill="white"/>
        <path d="M46.82 5.60769L51.2438 19.1285L39.7169 10.7792H53.9231L42.3961 19.1285L46.82 5.60769Z" fill="white"/>
        <path d="M46.82 31.7769L51.2438 45.2977L39.7169 36.9485H53.9231L42.3961 45.2977L46.82 31.7769Z" fill="white"/>
        <path d="M46.82 57.9462L51.2438 71.4669L39.7169 63.1177H53.9231L42.3961 71.4669L46.82 57.9462Z" fill="white"/>
        <path d="M46.82 84.1154L51.2438 97.6362L39.7169 89.2869H53.9231L42.3961 97.6362L46.82 84.1154Z" fill="white"/>
        <path d="M46.82 110.285L51.2438 123.805L39.7169 115.456H53.9231L42.3961 123.805L46.82 110.285Z" fill="white"/>
        <path d="M62.21 18.6923L66.6339 32.2131L55.1069 23.8638H69.3131L57.7862 32.2131L62.21 18.6923Z" fill="white"/>
        <path d="M62.21 44.8615L66.6339 58.3823L55.1069 50.0331H69.3131L57.7862 58.3823L62.21 44.8615Z" fill="white"/>
        <path d="M62.21 71.0308L66.6339 84.5515L55.1069 76.2023H69.3131L57.7862 84.5515L62.21 71.0308Z" fill="white"/>
        <path d="M62.21 97.2L66.6339 110.721L55.1069 102.372H69.3131L57.7862 110.721L62.21 97.2Z" fill="white"/>
        <path d="M77.6 5.60769L82.0238 19.1285L70.4969 10.7792H84.703L73.1761 19.1285L77.6 5.60769Z" fill="white"/>
        <path d="M77.6 31.7769L82.0238 45.2977L70.4969 36.9485H84.703L73.1761 45.2977L77.6 31.7769Z" fill="white"/>
        <path d="M77.6 57.9462L82.0238 71.4669L70.4969 63.1177H84.703L73.1761 71.4669L77.6 57.9462Z" fill="white"/>
        <path d="M77.6 84.1154L82.0238 97.6362L70.4969 89.2869H84.703L73.1761 97.6362L77.6 84.1154Z" fill="white"/>
        <path d="M77.6 110.285L82.0238 123.805L70.4969 115.456H84.703L73.1761 123.805L77.6 110.285Z" fill="white"/>
        <path d="M92.99 18.6923L97.4138 32.2131L85.8869 23.8638H100.093L88.5661 32.2131L92.99 18.6923Z" fill="white"/>
        <path d="M92.99 44.8615L97.4138 58.3823L85.8869 50.0331H100.093L88.5661 58.3823L92.99 44.8615Z" fill="white"/>
        <path d="M92.99 71.0308L97.4138 84.5515L85.8869 76.2023H100.093L88.5661 84.5515L92.99 71.0308Z" fill="white"/>
        <path d="M92.99 97.2L97.4138 110.721L85.8869 102.372H100.093L88.5661 110.721L92.99 97.2Z" fill="white"/>
        <path d="M108.38 5.60769L112.804 19.1285L101.277 10.7792H115.483L103.956 19.1285L108.38 5.60769Z" fill="white"/>
        <path d="M108.38 31.7769L112.804 45.2977L101.277 36.9485H115.483L103.956 45.2977L108.38 31.7769Z" fill="white"/>
        <path d="M108.38 57.9462L112.804 71.4669L101.277 63.1177H115.483L103.956 71.4669L108.38 57.9462Z" fill="white"/>
        <path d="M108.38 84.1154L112.804 97.6362L101.277 89.2869H115.483L103.956 97.6362L108.38 84.1154Z" fill="white"/>
        <path d="M108.38 110.285L112.804 123.805L101.277 115.456H115.483L103.956 123.805L108.38 110.285Z" fill="white"/>
        <path d="M123.77 18.6923L128.194 32.2131L116.667 23.8638H130.873L119.346 32.2131L123.77 18.6923Z" fill="white"/>
        <path d="M123.77 44.8615L128.194 58.3823L116.667 50.0331H130.873L119.346 58.3823L123.77 44.8615Z" fill="white"/>
        <path d="M123.77 71.0308L128.194 84.5515L116.667 76.2023H130.873L119.346 84.5515L123.77 71.0308Z" fill="white"/>
        <path d="M123.77 97.2L128.194 110.721L116.667 102.372H130.873L119.346 110.721L123.77 97.2Z" fill="white"/>
        <path d="M139.16 5.60769L143.584 19.1285L132.057 10.7792H146.263L134.736 19.1285L139.16 5.60769Z" fill="white"/>
        <path d="M139.16 31.7769L143.584 45.2977L132.057 36.9485H146.263L134.736 45.2977L139.16 31.7769Z" fill="white"/>
        <path d="M139.16 57.9462L143.584 71.4669L132.057 63.1177H146.263L134.736 71.4669L139.16 57.9462Z" fill="white"/>
        <path d="M139.16 84.1154L143.584 97.6362L132.057 89.2869H146.263L134.736 97.6362L139.16 84.1154Z" fill="white"/>
        <path d="M139.16 110.285L143.584 123.805L132.057 115.456H146.263L134.736 123.805L139.16 110.285Z" fill="white"/>
        <path d="M154.55 18.6923L158.974 32.2131L147.447 23.8638H161.653L150.126 32.2131L154.55 18.6923Z" fill="white"/>
        <path d="M154.55 44.8615L158.974 58.3823L147.447 50.0331H161.653L150.126 58.3823L154.55 44.8615Z" fill="white"/>
        <path d="M154.55 71.0308L158.974 84.5515L147.447 76.2023H161.653L150.126 84.5515L154.55 71.0308Z" fill="white"/>
        <path d="M154.55 97.2L158.974 110.721L147.447 102.372H161.653L150.126 110.721L154.55 97.2Z" fill="white"/>
        <path d="M169.94 5.60769L174.364 19.1285L162.837 10.7792H177.043L165.516 19.1285L169.94 5.60769Z" fill="white"/>
        <path d="M169.94 31.7769L174.364 45.2977L162.837 36.9485H177.043L165.516 45.2977L169.94 31.7769Z" fill="white"/>
        <path d="M169.94 57.9462L174.364 71.4669L162.837 63.1177H177.043L165.516 71.4669L169.94 57.9462Z" fill="white"/>
        <path d="M169.94 84.1154L174.364 97.6362L162.837 89.2869H177.043L165.516 97.6362L169.94 84.1154Z" fill="white"/>
        <path d="M169.94 110.285L174.364 123.805L162.837 115.456H177.043L165.516 123.805L169.94 110.285Z" fill="white"/>
    </g>
    <defs>
        <clipPath id="clip0_54_320">
            <rect width="463" height="243" rx="30" fill="white"/>
        </clipPath>
    </defs>
</svg>